<svg xmlns="http://www.w3.org/2000/svg" viewBox="0 0 512 512" id="skills">
  <path fill="#ffcd85" d="M278.78 186h13.44a12.91 12.91 0 0 1 12.91 12.91V219a12.91 12.91 0 0 1-12.91 12.91h-13.44V186Z"></path>
  <path fill="#ffc166" d="M125.76 231.96h-13.44a12.91 12.91 0 0 1-12.91-12.91v-20.09a12.91 12.91 0 0 1 12.91-12.91h13.44v45.91Z"></path>
  <path fill="#66c1ff" d="m7.5 433.88 2.25-23.24c.07-.68.14-1.35.22-2 3.75-30.15 26.25-54.61 55.74-61.87l73.42-13.46 63.14-95.15 63.89 94.5 72.67 14.11c29.5 7.26 52 31.72 55.74 61.87.08.67.16 1.34.22 2l2.21 23.24c3.67 37.84-25.9 70.62-63.7 70.62H37.5a30 30 0 0 1-30-30Z"></path>
  <path fill="#ffcd85" d="m146.48 322.21 55.79-84.07 56.33 83.32-55.96 50.63-56.16-49.88z"></path>
  <path fill="#ffc166" d="m202.27 238.14-14.86 22.39 29.75 44a23.52 23.52 0 0 1-3.71 30.62l-25.95 23.49 15.14 13.45 56-50.63Z"></path>
  <path fill="#36aeff" d="m246.58 408.32 42.53-52.8a4 4 0 0 0 .27-4.63l-20.25-32.27a4 4 0 0 0-6.05-.87l-60.81 54 38.42 37a4 4 0 0 0 5.89-.43Z"></path>
  <path fill="#36aeff" d="M157.33 407.47 116 356.12a5 5 0 0 1-.3-5.86L135.29 320a5 5 0 0 1 7.52-1l59.52 52.77-37.64 36.21a5 5 0 0 1-7.36-.51Z"></path>
  <path fill="#676e87" d="m248.16 176.72-122.4-1.3v-55.68c0-15.86 13.71-32.81 30.62-32.81h117.4a5 5 0 0 1 5 5V148c0 15.86-13.71 28.72-30.62 28.72Z"></path>
  <path fill="#ffcd85" d="M135.76 161.72h133a10 10 0 0 1 10 10v67.64a76.51 76.51 0 0 1-76.51 76.51 76.51 76.51 0 0 1-76.51-76.51v-67.64a10 10 0 0 1 10.02-10Z"></path>
  <path fill="#ffc166" d="M268.78 161.72h-28.89a8.89 8.89 0 0 1 8.89 8.89v68.74a76.54 76.54 0 0 1-61.51 75 77.23 77.23 0 0 0 15 1.48 76.52 76.52 0 0 0 76.51-76.51v-67.6a10 10 0 0 0-10-10Z"></path>
  <path fill="#36aeff" d="m397 433.88-2.25-23.24c-.06-.68-.14-1.35-.22-2-3.75-30.15-26.24-54.61-55.74-61.87l-35.6-6.91V487.6a16.9 16.9 0 0 0 16.9 16.9h13.21c37.84 0 67.41-32.78 63.7-70.62Z"></path>
  <rect width="186.27" height="212.41" x="318.23" y="292.09" fill="#f2f2f2" rx="16.9"></rect>
  <path fill="#595f74" d="m445.42 455.52-5.89 2.48a73.62 73.62 0 0 1-56.59 0l-5.9-2.46a10.12 10.12 0 0 1-6.22-9.32v-43.83h80.82v43.81a10.1 10.1 0 0 1-6.22 9.32Z"></path>
  <path fill="#676e87" d="M409.38 424.16 352 393.23a3.89 3.89 0 0 1 0-6.85l57.39-30.93a3.91 3.91 0 0 1 3.7 0l57.4 30.93a3.89 3.89 0 0 1 0 6.85l-57.4 30.93a3.91 3.91 0 0 1-3.71 0Z"></path>
  <rect width="71" height="51" x="375.87" y="268.35" fill="#ffcd85" rx="16"></rect>
  <path fill="#272a33" d="M179.9 269.1a40.7 40.7 0 0 0 21.7 6.74h.72a41.31 41.31 0 0 0 22.43-6.75 7.5 7.5 0 1 0-8.25-12.52 25.63 25.63 0 0 1-28.34 0 7.5 7.5 0 0 0-8.26 12.52Zm55.71-55.9a7.5 7.5 0 0 0 7.5-7.5V196a7.5 7.5 0 1 0-15 0v9.68a7.5 7.5 0 0 0 7.5 7.52ZM474 379.77l-57.4-30.92a11.33 11.33 0 0 0-10.81 0l-57.4 30.92a11.4 11.4 0 0 0 0 20.07l14.89 8v38.36a17.55 17.55 0 0 0 10.84 16.24l5.89 2.46a81.62 81.62 0 0 0 62.36 0l5.9-2.46a17.54 17.54 0 0 0 10.83-16.24v-38.34l6.16-3.31v18.11a7.5 7.5 0 0 0 15 0V389.8a7.49 7.49 0 0 0-.78-3.3 11.39 11.39 0 0 0-5.48-6.73Zm-29.9 66.43a2.6 2.6 0 0 1-1.6 2.4l-5.9 2.46a66.57 66.57 0 0 1-50.82 0l-5.9-2.46a2.6 2.6 0 0 1-1.6-2.4V416l27.51 14.81a11.35 11.35 0 0 0 10.81 0L444.14 416Zm3.95-49.43-36.81 19.84-36.8-19.83h-.07l-12.93-7L411.23 363 461 389.8Zm-245.78 10.31a7.5 7.5 0 1 0 7.5 7.5 7.5 7.5 0 0 0-7.5-7.5Zm285.33-122.5h-33.23v-.23a23.52 23.52 0 0 0-23.5-23.5h-39a23.52 23.52 0 0 0-23.5 23.5v.23h-33.24a24.43 24.43 0 0 0-24.4 24.4v24.67L295 330.59a13.74 13.74 0 0 0-1.75-1.92l-17.57-16a13.46 13.46 0 0 0-15.28-2l-4.52-6.7a83.84 83.84 0 0 0 30.42-64.56h5.94A20.44 20.44 0 0 0 312.63 219v-20.1a20.44 20.44 0 0 0-20.42-20.41h-5.93v-7.89a16.23 16.23 0 0 0-2.77-9.09 34.54 34.54 0 0 0 2.77-13.5V91.93a12.52 12.52 0 0 0-12.5-12.5h-117.4c-21.81 0-38.12 21.28-38.12 40.31v58.78h-5.93a20.43 20.43 0 0 0-20.41 20.41V219a20.43 20.43 0 0 0 20.41 20.41h5.94a83.84 83.84 0 0 0 31 65l-4.39 6.61a13.49 13.49 0 0 0-16 1.62l-17.57 16a13.52 13.52 0 0 0-2.14 2.48l-44.82 8.22-.44.1c-32.65 8-57.32 35.45-61.39 68.22q-.13 1.11-.24 2.22L0 433.16V474.5A37.54 37.54 0 0 0 37.5 512h450.1a24.42 24.42 0 0 0 24.4-24.4V309a24.43 24.43 0 0 0-24.4-24.42Zm-201.32-91.06h5.93a5.42 5.42 0 0 1 5.42 5.41V219a5.42 5.42 0 0 1-5.42 5.41h-5.93Zm-168 30.92h-5.93a5.41 5.41 0 0 1-5.41-5.41v-20.1a5.41 5.41 0 0 1 5.41-5.41h5.93Zm145.09 103.09a7.75 7.75 0 0 0 .74-.66l2.45-2.17 15.63 14.21L242.5 400l-29.18-28Zm-61.1 34.17-45.94-40.77 5.35-8.06a83.72 83.72 0 0 0 81.81-.37l5.33 7.89Zm-69-242c0-11.47 10.32-25.31 23.12-25.31h114.9V148a19.6 19.6 0 0 1-1 6.22H135.76a17.21 17.21 0 0 0-2.5.2Zm0 119.61v-67.59a2.51 2.51 0 0 1 2.5-2.5h134.12a1.39 1.39 0 0 1 1.39 1.38v68.75a69 69 0 1 1-138 0ZM138 324.7l53.22 47.3L162 400l-39.69-61.12Zm25 76.85ZM83.09 497v-53.75a7.5 7.5 0 0 0-15 0V497H37.5A22.52 22.52 0 0 1 15 474.5v-40.26l2.22-22.88c.05-.61.12-1.21.2-1.82 3.3-26.57 23.33-48.83 49.87-55.46l42-7.7 41.13 63.34a13.46 13.46 0 0 0 9.78 6.06 13.6 13.6 0 0 0 1.56.09 13.43 13.43 0 0 0 9.34-3.78l31.14-29.95 31.14 30a13.5 13.5 0 0 0 20.68-2.38l41.4-63.76 15.25 3v138.6a24.31 24.31 0 0 0 1.89 9.4Zm300.28-212.65a8.51 8.51 0 0 1 8.5-8.5h39a8.51 8.51 0 0 1 8.5 8.5v19a8.51 8.51 0 0 1-8.5 8.5h-39a8.51 8.51 0 0 1-8.5-8.5ZM497 487.6a9.4 9.4 0 0 1-9.4 9.4H335.13a9.41 9.41 0 0 1-9.4-9.4V309a9.41 9.41 0 0 1 9.4-9.4h33.24v3.77a23.52 23.52 0 0 0 23.5 23.5h39a23.52 23.52 0 0 0 23.5-23.5v-3.77h33.23a9.41 9.41 0 0 1 9.4 9.4Zm-294.73-20.52a7.5 7.5 0 1 0 7.5 7.5 7.5 7.5 0 0 0-7.5-7.5ZM168.93 213.2a7.5 7.5 0 0 0 7.5-7.5V196a7.5 7.5 0 0 0-15 0v9.68a7.5 7.5 0 0 0 7.5 7.52Zm33.34 223.88a7.5 7.5 0 1 0 7.5 7.5 7.5 7.5 0 0 0-7.5-7.5Z"></path>
</svg>
